<svg data-v-0dd9719b="" version="1.0" xmlns="http://www.w3.org/2000/svg" xmlns:xlink="http://www.w3.org/1999/xlink" width="100%" height="100%" viewBox="0 0 340.000000 250.000000" preserveAspectRatio="xMidYMid meet" color-interpolation-filters="sRGB" style="margin: auto;"> <rect data-v-0dd9719b="" x="0" y="0" width="100%" height="100%" fill="#ffffff" fill-opacity="1" class="background"></rect> <rect data-v-0dd9719b="" x="0" y="0" width="100%" height="100%" fill="url(#watermark)" fill-opacity="1" class="watermarklayer"></rect> <g data-v-0dd9719b="" fill="#100299" class="icon-text-wrapper icon-svg-group iconsvg" transform="translate(46.96000671386719,86.82526016235352)"><g class="iconsvg-imagesvg" transform="translate(0,0)"><g><rect fill="#100299" fill-opacity="0" stroke-width="2" x="0" y="0" width="60.00000000000001" height="76.34947700608252" class="image-rect"></rect> <svg filter="url(#colors5969228342)" x="0" y="0" width="60.00000000000001" height="76.34947700608252" filtersec="colorsf836331145" class="image-svg-svg primary" style="overflow: visible;"><svg fill="#000000" xmlns="http://www.w3.org/2000/svg" xmlns:xlink="http://www.w3.org/1999/xlink" version="1.1" x="0px" y="0px" viewBox="10.706999778747559 0 78.58599853515625 100" enable-background="new 0 0 100 100" xml:space="preserve"><g><g><g><path d="M15.323,55.297c-0.505,1.855-0.795,3.805-0.795,5.825c0,2.019,0.29,3.967,0.795,5.826l17.928-5.826L15.323,55.297z"></path><path d="M33.923,59.053l-7.81-10.748c-2.122,1.763-3.795,4.034-4.834,6.64L33.923,59.053z"></path><path d="M84.682,75.546c1.375-4.569,2.131-9.405,2.131-14.424s-0.756-9.854-2.131-14.424l-44.39,14.424L84.682,75.546z"></path><path d="M39.619,63.191L63.771,96.43c6.793-5.201,12.035-12.312,14.929-20.539L39.619,63.191z"></path><path d="M10.707,70.732c1.787,4.855,4.88,9.063,8.866,12.207l14.351-19.748L10.707,70.732z"></path><path d="M35.684,64.469L18.073,88.703c5.054,3.434,11.09,5.512,17.611,5.724V64.469z"></path><path d="M37.859,64.469V100c7.744-0.213,14.915-2.688,20.889-6.784L37.859,64.469z"></path><path d="M37.859,57.773L71.825,11.03C62.177,4.27,50.494,0.221,37.859,0V57.773z"></path><path d="M35.684,50.074c-1.643,0.16-3.173,0.68-4.524,1.475l4.524,6.225V50.074z"></path><path d="M89.293,42.913c-3.632-10.486-10.305-19.537-18.977-26.107L39.619,59.053L89.293,42.913z"></path></g></g></g><desc>Created with Snap</desc><defs></defs></svg></svg> <defs><filter id="colors5969228342"><feColorMatrix type="matrix" values="0 0 0 0 0.0625  0 0 0 0 0.0078125  0 0 0 0 0.59765625  0 0 0 1 0" class="icon-fecolormatrix"></feColorMatrix></filter> <filter id="colorsf836331145"><feColorMatrix type="matrix" values="0 0 0 0 0.99609375  0 0 0 0 0.99609375  0 0 0 0 0.99609375  0 0 0 1 0" class="icon-fecolormatrix"></feColorMatrix></filter> <filter id="colorsb9694004606"><feColorMatrix type="matrix" values="0 0 0 0 0  0 0 0 0 0  0 0 0 0 0  0 0 0 1 0" class="icon-fecolormatrix"></feColorMatrix></filter></defs></g></g> <g transform="translate(67,21.02474021911621)"><g data-gra="path-name" fill-rule="" class="tp-name iconsvg-namesvg"><g transform="scale(1)"><g><path d="M40.2-28.68L40.2-27.34 36.98-27.34 34.07-17.11 28.63 2.26 27.2 2.26Q24.16-7.98 20.01-21.02L20.01-21.02 16.6-9.82 12.91 2.26 11.53 2.26Q9.64-4.89 7.28-13.51 4.93-22.13 3.5-27.34L3.5-27.34 0.46-27.34 0.46-28.72 10.84-28.68 10.84-27.34 7.33-27.34Q8.44-23.33 10.14-16.9 11.85-10.47 13.28-4.98L13.28-4.98 13.79-6.64Q18.03-20.38 20.29-28.26L20.29-28.26 21.62-28.26Q22.68-24.76 26.33-12.82L26.33-12.82Q26.23-13.09 28.77-4.93L28.77-4.93 34.9-27.34 30.57-27.34 30.57-28.72 40.2-28.68ZM49.33 2.35Q46.84 2.35 44.98 0.97 43.11-0.41 42.12-2.72 41.13-5.03 41.13-7.75L41.13-7.75Q41.13-10.14 41.84-12.26 42.56-14.39 43.85-15.95L43.85-15.95Q45.14-17.61 46.8-18.49 48.46-19.36 50.12-19.36L50.12-19.36Q51.87-19.36 53.35-18.35 54.82-17.34 55.67-15.65 56.53-13.97 56.53-12.13L56.53-12.13Q56.48-11.34 56.34-11.02 56.2-10.7 55.7-10.56L55.7-10.56Q55.05-10.42 51.55-10.17 48.04-9.91 44.49-9.77L44.49-9.77Q44.45-6.82 45.35-4.82 46.24-2.81 47.72-1.87 49.2-0.92 50.76-0.92L50.76-0.92Q53.3-0.92 55.65-3.27L55.65-3.27 56.34-2.21Q54.54 0.28 52.63 1.31 50.72 2.35 49.33 2.35L49.33 2.35ZM44.68-11.8Q49.38-11.8 51.87-11.94L51.87-11.94Q52.47-11.94 52.68-12.17 52.88-12.4 52.88-12.96L52.88-12.96Q52.88-14.85 51.82-16.23 50.76-17.61 49.1-17.61L49.1-17.61Q47.58-17.61 46.34-16.07 45.09-14.52 44.68-11.8L44.68-11.8ZM65.66 2.35Q63.17 2.35 61.3 0.97 59.43-0.41 58.44-2.72 57.45-5.03 57.45-7.75L57.45-7.75Q57.45-10.14 58.16-12.26 58.88-14.39 60.17-15.95L60.17-15.95Q61.46-17.61 63.12-18.49 64.78-19.36 66.44-19.36L66.44-19.36Q68.19-19.36 69.67-18.35 71.14-17.34 72-15.65 72.85-13.97 72.85-12.13L72.85-12.13Q72.8-11.34 72.66-11.02 72.53-10.7 72.02-10.56L72.02-10.56Q71.37-10.42 67.87-10.17 64.36-9.91 60.81-9.77L60.81-9.77Q60.77-6.82 61.67-4.82 62.57-2.81 64.04-1.87 65.52-0.92 67.09-0.92L67.09-0.92Q69.62-0.92 71.97-3.27L71.97-3.27 72.66-2.21Q70.87 0.28 68.95 1.31 67.04 2.35 65.66 2.35L65.66 2.35ZM61-11.8Q65.7-11.8 68.19-11.94L68.19-11.94Q68.79-11.94 69-12.17 69.21-12.4 69.21-12.96L69.21-12.96Q69.21-14.85 68.15-16.23 67.09-17.61 65.43-17.61L65.43-17.61Q63.9-17.61 62.66-16.07 61.41-14.52 61-11.8L61-11.8ZM92.54 0.41L94.84 0.41 94.84 1.75 89.08 1.75 81.42-8.35 80.09-8.35 80.09 0.41 82.95 0.41 82.95 1.75 73.77 1.75 73.77 0.41 76.77 0.41 76.77-28.54Q76.77-28.72 76.63-28.84 76.49-28.95 76.31-28.95L76.31-28.95 74-28.95 74-30.15Q75.57-30.61 76.44-30.91 77.32-31.21 78.75-31.86L78.75-31.86Q79.03-31.95 79.12-31.95L79.12-31.95Q79.49-31.95 79.79-31.65 80.09-31.35 80.09-30.94L80.09-30.94 80.09-9.73 81.7-9.73 87.6-17.89 84.19-17.89 84.19-19.23 93.37-19.23 93.37-17.89 90-17.89Q89.4-17.15 89.08-16.78L89.08-16.78 84.05-10.42Q84.79-9.27 92.54 0.41L92.54 0.41ZM125.09 0.41L127.95 0.41 127.95 1.75 118.72 1.75 118.72 0.41 121.77 0.41 121.77-11.11Q121.77-16.55 118.13-16.55L118.13-16.55Q117.02-16.55 115.89-15.93 114.76-15.31 113.47-14.11L113.47-14.11Q113.47-13.88 113.54-13.32 113.61-12.77 113.61-12.13L113.61-12.13 113.61 0.41 116.37 0.41 116.37 1.75 107.11 1.75 107.11 0.41 110.29 0.41 110.29-11.16Q110.29-13.88 109.46-15.22 108.63-16.55 106.74-16.55L106.74-16.55Q104.8-16.55 102.13-14.15L102.13-14.15 102.13 0.41 104.98 0.41 104.98 1.75 95.76 1.75 95.76 0.41 98.81 0.41 98.81-16.09Q98.81-16.28 98.67-16.41 98.53-16.55 98.35-16.55L98.35-16.55 96.04-16.55 96.04-17.7Q97.42-18.12 98.48-18.51 99.54-18.9 100.79-19.46L100.79-19.46Q101.07-19.55 101.16-19.55L101.16-19.55Q101.53-19.55 101.83-19.25 102.13-18.95 102.13-18.53L102.13-18.53 102.13-15.72Q103.19-16.88 103.95-17.54 104.71-18.21 105.88-18.79 107.06-19.36 108.53-19.36L108.53-19.36Q110.06-19.36 111.3-18.35 112.55-17.34 113.15-15.54L113.15-15.54Q114.3-17.06 116-18.21 117.71-19.36 119.78-19.36L119.78-19.36Q122.27-19.36 123.68-17.47 125.09-15.58 125.09-12.17L125.09-12.17 125.09 0.41ZM138 2.35Q135.18 2.35 133.06 0.88 130.94-0.6 129.79-3.02 128.64-5.44 128.64-8.11L128.64-8.11Q128.64-11.71 130.07-14.27 131.5-16.83 133.69-18.1 135.88-19.36 138-19.36L138-19.36Q140.58-19.36 142.68-18 144.77-16.64 145.97-14.25 147.17-11.85 147.17-8.85L147.17-8.85Q147.17-5.3 145.79-2.74 144.41-0.18 142.28 1.08 140.16 2.35 138 2.35L138 2.35ZM138.41 0.69Q140.58 0.69 141.89-1.31 143.21-3.32 143.21-7.84L143.21-7.84Q143.21-12.13 141.69-14.96 140.16-17.8 137.49-17.8L137.49-17.8Q135.41-17.8 134.01-15.63 132.6-13.46 132.6-9.59L132.6-9.59Q132.6-6.64 133.34-4.29 134.08-1.94 135.39-0.62 136.71 0.69 138.41 0.69L138.41 0.69ZM162.25-18.86Q163.22-18.03 163.22-16.97L163.22-16.97Q163.22-16.28 162.85-15.61 162.48-14.94 162.06-14.52 161.65-14.11 161.51-14.02L161.51-14.02Q160.08-15.72 158.28-15.72L158.28-15.72Q157.09-15.72 156-14.92 154.92-14.11 154.18-12.68L154.18-12.68 154.18 0.41 157.04 0.41 157.04 1.75 147.86 1.75 147.86 0.41 150.86 0.41 150.86-16.09Q150.86-16.28 150.72-16.41 150.58-16.55 150.4-16.55L150.4-16.55 148.09-16.55 148.09-17.7Q149.48-18.12 150.54-18.51 151.6-18.9 152.84-19.46L152.84-19.46Q153.12-19.55 153.21-19.55L153.21-19.55Q153.58-19.55 153.88-19.25 154.18-18.95 154.18-18.53L154.18-18.53 154.18-15.26Q155.06-17.24 156.74-18.42 158.42-19.6 160.08-19.6L160.08-19.6Q161.47-19.6 162.25-18.86L162.25-18.86ZM172.35 2.35Q169.86 2.35 167.99 0.97 166.12-0.41 165.13-2.72 164.14-5.03 164.14-7.75L164.14-7.75Q164.14-10.14 164.85-12.26 165.57-14.39 166.86-15.95L166.86-15.95Q168.15-17.61 169.81-18.49 171.47-19.36 173.13-19.36L173.13-19.36Q174.88-19.36 176.36-18.35 177.83-17.34 178.69-15.65 179.54-13.97 179.54-12.13L179.54-12.13Q179.49-11.34 179.35-11.02 179.22-10.7 178.71-10.56L178.71-10.56Q178.06-10.42 174.56-10.17 171.06-9.91 167.51-9.77L167.51-9.77Q167.46-6.82 168.36-4.82 169.26-2.81 170.73-1.87 172.21-0.92 173.78-0.92L173.78-0.92Q176.31-0.92 178.66-3.27L178.66-3.27 179.35-2.21Q177.56 0.28 175.64 1.31 173.73 2.35 172.35 2.35L172.35 2.35ZM167.69-11.8Q172.39-11.8 174.88-11.94L174.88-11.94Q175.48-11.94 175.69-12.17 175.9-12.4 175.9-12.96L175.9-12.96Q175.9-14.85 174.84-16.23 173.78-17.61 172.12-17.61L172.12-17.61Q170.59-17.61 169.35-16.07 168.1-14.52 167.69-11.8L167.69-11.8Z" transform="translate(-0.46000000834465027, 31.950000762939453)"></path></g> <!----> <!----> <!----> <!----> <!----> <!----> <!----></g></g> <!----></g></g><defs v-gra="od"></defs></svg>